<svg width="54" height="54" viewBox="0 0 54 54" fill="none" xmlns="http://www.w3.org/2000/svg">
<g filter="url(#filter0_d_532_1163)">
<path d="M26.7999 41.3C36.9619 41.3 45.1999 33.062 45.1999 22.9C45.1999 12.738 36.9619 4.5 26.7999 4.5C16.6379 4.5 8.3999 12.738 8.3999 22.9C8.3999 33.062 16.6379 41.3 26.7999 41.3Z" fill="#6200EA"/>
<path fill-rule="evenodd" clip-rule="evenodd" d="M23.4 12.6001C25 12.6001 26.3 14.6001 26.3 17.0001C26.3 19.4001 25 21.4001 23.4 21.4001C21.8 21.4001 20.5 19.4001 20.5 17.0001C20.6 14.6001 21.8 12.6001 23.4 12.6001ZM27.1 23.3001C30.5 23.3001 30.9 25.5001 33.7 29.4001C35.1 32.2001 33.3 33.9001 30.1 33.2001C28.7 32.5001 27.7 32.2001 26.7 32.2001C24.9 32.3001 24.5 33.4001 22.5 33.3001C20.9 33.3001 20.2 32.6001 20.1 31.6001C19.9 30.5001 20.4 29.9001 20.9 29.0001C22.8 25.6001 24.8 22.9001 27.1 23.3001ZM17.9 19.2001C16.7 19.7001 16.3 21.5001 17.1 23.3001C17.9 25.1001 19.4 26.2001 20.6 25.7001C21.8 25.2001 22.2 23.4001 21.4 21.6001C20.6 19.8001 19.1 18.7001 17.9 19.2001ZM35.7 19.2001C36.9 19.7001 37.3 21.5001 36.5 23.3001C35.8 25.1001 34.2 26.2001 33 25.7001C31.8 25.2001 31.4 23.4001 32.2 21.6001C33 19.8001 34.5 18.7001 35.7 19.2001ZM30.1 12.6001C31.7 12.6001 33 14.6001 33 17.0001C33 19.4001 31.7 21.4001 30.1 21.4001C28.5 21.4001 27.2 19.4001 27.2 17.0001C27.2 14.6001 28.5 12.6001 30.1 12.6001Z" fill="#F8F9FA"/>
</g>
<defs>
<filter id="filter0_d_532_1163" x="-4" y="-4" width="59.5" height="60" filterUnits="userSpaceOnUse" color-interpolation-filters="sRGB">
<feFlood flood-opacity="0" result="BackgroundImageFix"/>
<feColorMatrix in="SourceAlpha" type="matrix" values="0 0 0 0 0 0 0 0 0 0 0 0 0 0 0 0 0 0 127 0" result="hardAlpha"/>
<feOffset dy="4"/>
<feGaussianBlur stdDeviation="4"/>
<feColorMatrix type="matrix" values="0 0 0 0 0.384314 0 0 0 0 0 0 0 0 0 0.917647 0 0 0 0.24 0"/>
<feBlend mode="normal" in2="BackgroundImageFix" result="effect1_dropShadow_532_1163"/>
<feBlend mode="normal" in="SourceGraphic" in2="effect1_dropShadow_532_1163" result="shape"/>
</filter>
</defs>
</svg>
