<svg width="120" height="39" viewBox="0 0 120 39" fill="none" xmlns="http://www.w3.org/2000/svg">
<path d="M41.69 10.3833V27.5692H44.6743V15.7371H44.8337L49.5784 27.5189H51.8083L56.5531 15.7622H56.7124V27.5692H59.6968V10.3833H55.8908L50.7939 22.8364H50.5928L45.4959 10.3833H41.69ZM64.8355 32.4028C67.1995 32.4028 68.5659 31.186 69.2953 29.13L74.4676 14.6965L71.2233 14.6797L68.2473 24.414H68.1133L65.1456 14.6797H61.9266L66.596 27.8377L66.3361 28.5343C65.7744 30.0028 64.8858 30.1035 63.5612 29.7175L62.8571 32.0839C63.2678 32.2518 64.0055 32.4028 64.8355 32.4028ZM82.5634 27.5692H85.6736V21.7623H88.9597C92.9248 21.7623 95.0542 19.379 95.0542 16.0728C95.0542 12.7916 92.95 10.3833 89.0016 10.3833H82.5634V27.5692ZM85.6736 19.2028V12.9846H88.5238C90.8543 12.9846 91.8854 14.2433 91.8854 16.0728C91.8854 17.9021 90.8543 19.2028 88.5405 19.2028H85.6736ZM103.137 27.821C106.139 27.821 108.201 26.3524 108.738 24.1119L105.904 23.793C105.493 24.8839 104.488 25.4546 103.179 25.4546C101.218 25.4546 99.9187 24.1623 99.8931 21.9553H108.863V21.0238C108.863 16.5007 106.147 14.5119 102.979 14.5119C99.2902 14.5119 96.8838 17.2224 96.8838 21.2C96.8838 25.2448 99.2557 27.821 103.137 27.821ZM99.902 19.9077C99.9934 18.2629 101.209 16.8783 103.02 16.8783C104.764 16.8783 105.937 18.1538 105.954 19.9077H99.902ZM117.86 14.6797H115.32V11.5916H112.286V14.6797H110.458V17.0294H112.286V24.1958C112.269 26.621 114.03 27.8126 116.31 27.7455C117.173 27.7203 117.768 27.5525 118.095 27.4434L117.583 25.0685C117.416 25.1105 117.072 25.186 116.695 25.186C115.932 25.186 115.32 24.9175 115.32 23.6923V17.0294H117.86V14.6797Z" fill="#7B61FF"/>
<path fill-rule="evenodd" clip-rule="evenodd" d="M8.48865 2.95385C10.3555 2.95385 11.8722 5.28978 11.8722 8.0929C11.8722 10.8961 10.3555 13.232 8.48865 13.232C6.62182 13.232 5.10502 10.8961 5.10502 8.0929C5.2217 5.28978 6.62182 2.95385 8.48865 2.95385ZM12.8057 15.4511C16.7728 15.4511 17.2394 18.0206 20.5063 22.5757C22.1398 25.846 20.0397 27.8315 16.306 27.0139C14.6726 26.1964 13.5057 25.846 12.339 25.846C10.2388 25.9627 9.7721 27.2476 7.43856 27.1308C5.57173 27.1308 4.75499 26.3132 4.63831 25.1452C4.40496 23.8605 4.98835 23.1596 5.57173 22.1085C7.78859 18.1374 10.1221 14.9839 12.8057 15.4511ZM2.07142 10.6624C0.671298 11.2464 0.204591 13.3487 1.13801 15.4511C2.07142 17.5534 3.82157 18.8382 5.2217 18.2542C6.62182 17.6702 7.08853 15.5679 6.15511 13.4655C5.2217 11.3633 3.47155 10.0784 2.07142 10.6624ZM22.8399 10.6624C24.24 11.2464 24.7067 13.3487 23.7733 15.4511C22.9566 17.5534 21.0897 18.8382 19.6896 18.2542C18.2895 17.6702 17.8228 15.5679 18.7562 13.4655C19.6896 11.3633 21.4398 10.0784 22.8399 10.6624ZM16.306 2.95385C18.1728 2.95385 19.6896 5.28978 19.6896 8.0929C19.6896 10.8961 18.1728 13.232 16.306 13.232C14.4392 13.232 12.9223 10.8961 12.9223 8.0929C12.9223 5.28978 14.4392 2.95385 16.306 2.95385Z" fill="#7B61FF"/>
</svg>
