<!--?xml version="1.0" standalone="no"?-->
              <svg id="sw-js-blob-svg" viewBox="0 0 100 100" xmlns="http://www.w3.org/2000/svg" version="1.1">
                    <defs> 
                        <linearGradient id="sw-gradient" x1="0" x2="1" y1="1" y2="0">
                            <stop id="stop1" stop-color="rgba(248, 117, 55, 1)" offset="0%"></stop>
                            <stop id="stop2" stop-color="rgba(251, 168, 31, 1)" offset="100%"></stop>
                        </linearGradient>
                    </defs>
                <path fill="url(#sw-gradient)" d="M24.8,-29.3C32.9,-22.8,40.6,-15.7,41.3,-7.9C42,-0.1,35.6,8.4,30.3,17.4C25,26.4,20.8,36,14.1,38.3C7.4,40.6,-1.9,35.6,-9,30.5C-16.2,25.4,-21.2,20.3,-25.2,14.1C-29.2,8,-32.2,0.9,-31.7,-6.2C-31.2,-13.4,-27.2,-20.5,-21.3,-27.4C-15.5,-34.2,-7.7,-40.7,0.3,-41.1C8.4,-41.5,16.8,-35.7,24.8,-29.3Z" width="100%" height="100%" transform="translate(50 50)" stroke-width="0" style="transition: all 0.3s ease 0s;"></path>
              </svg>