<?xml version="1.0" encoding="utf-8"?>
<!-- Generator: Adobe Illustrator 24.1.2, SVG Export Plug-In . SVG Version: 6.00 Build 0)  -->
<svg version="1.1" id="Camada_1" xmlns="http://www.w3.org/2000/svg" xmlns:xlink="http://www.w3.org/1999/xlink" x="0px" y="0px"
	 viewBox="0 0 112 44" style="enable-background:new 0 0 112 44;" xml:space="preserve">
<style type="text/css">
	.st0{fill-rule:evenodd;clip-rule:evenodd;fill:#00E676;}
	.st1{fill:#00E676;}
</style>
<g>
	<g>
		<g>
			<path class="st0" d="M18.74,8.25c2.12,0,3.83,2.63,3.83,5.88S20.86,20,18.74,20s-3.83-2.63-3.83-5.88
				C14.91,10.88,16.62,8.25,18.74,8.25L18.74,8.25z M23.61,22.47c4.49,0.01,5.05,2.98,8.83,8.07c1.89,3.7-0.56,6.04-4.76,5.04
				c-1.9-0.97-3.24-1.31-4.59-1.27c-2.33,0.08-2.92,1.62-5.62,1.51c-2.09-0.06-3.03-0.93-3.21-2.27c-0.2-1.42,0.35-2.31,1.02-3.49
				C17.87,25.51,20.54,21.9,23.61,22.47L23.61,22.47L23.61,22.47z M11.34,16.97c-1.58,0.63-2.09,3.1-1.13,5.52s3.02,3.88,4.6,3.26
				c1.58-0.63,2.09-3.1,1.13-5.52S12.92,16.34,11.34,16.97L11.34,16.97z M35.06,16.97c1.58,0.63,2.09,3.1,1.13,5.52
				c-0.96,2.42-3.02,3.88-4.6,3.26c-1.58-0.63-2.09-3.1-1.13-5.52C31.42,17.8,33.48,16.34,35.06,16.97L35.06,16.97z M27.58,8.17
				c2.12,0,3.83,2.63,3.83,5.88s-1.72,5.88-3.83,5.88s-3.83-2.63-3.83-5.88C23.75,10.8,25.47,8.17,27.58,8.17L27.58,8.17z"/>
		</g>
	</g>
	<g>
		<path class="st1" d="M41.54,27.2V16.78h2.83V27.2H41.54z M48.34,27.2v-6.15c0-0.6-0.19-1.08-0.57-1.41
			c-0.38-0.34-0.85-0.51-1.41-0.51c-0.38,0-0.71,0.08-1.01,0.23c-0.3,0.15-0.54,0.37-0.71,0.66c-0.17,0.29-0.26,0.63-0.26,1.04
			l-1.1-0.54c0-0.81,0.18-1.5,0.53-2.09c0.35-0.59,0.83-1.05,1.43-1.37s1.29-0.49,2.05-0.49c0.72,0,1.37,0.16,1.96,0.49
			s1.06,0.78,1.4,1.36c0.34,0.58,0.52,1.28,0.52,2.1v6.69H48.34z M55.14,27.2v-6.15c0-0.6-0.19-1.08-0.57-1.41
			c-0.38-0.34-0.85-0.51-1.41-0.51c-0.36,0-0.69,0.08-1,0.23s-0.55,0.37-0.72,0.66c-0.17,0.29-0.26,0.63-0.26,1.04l-1.62-0.39
			c0.06-0.83,0.28-1.56,0.67-2.17c0.39-0.61,0.9-1.09,1.53-1.42c0.63-0.34,1.34-0.51,2.12-0.51s1.47,0.16,2.09,0.49
			c0.62,0.32,1.11,0.79,1.47,1.39c0.36,0.6,0.54,1.32,0.54,2.16v6.6H55.14z"/>
		<path class="st1" d="M63.54,27.29l-4.36-10.51h3.06l2.89,8.03H64.1l3-8.03h3.09l-4.64,10.49L63.54,27.29z M60.64,31.56l3.17-6.71
			l1.73,2.42l-1.9,4.3H60.64z"/>
		<path class="st1" d="M71.35,31.56V16.78h2.83v2.74l-0.47,2.52l0.45,2.53v6.99H71.35z M77.13,27.42c-0.75,0-1.42-0.16-2.03-0.46
			c-0.6-0.31-1.09-0.73-1.45-1.26c-0.36-0.53-0.55-1.14-0.58-1.83v-3.69c0.03-0.69,0.23-1.31,0.59-1.85s0.85-0.97,1.45-1.28
			c0.6-0.32,1.27-0.47,2.02-0.47c0.96,0,1.83,0.24,2.59,0.71c0.76,0.48,1.36,1.12,1.8,1.94c0.44,0.82,0.66,1.75,0.66,2.78
			c0,1.02-0.22,1.94-0.66,2.76c-0.44,0.82-1.04,1.47-1.8,1.94C78.96,27.18,78.1,27.42,77.13,27.42z M76.64,24.8
			c0.52,0,0.98-0.12,1.38-0.36c0.4-0.24,0.72-0.57,0.94-0.99c0.22-0.42,0.33-0.92,0.33-1.48c0-0.55-0.11-1.03-0.33-1.46
			c-0.22-0.42-0.54-0.76-0.94-0.99c-0.4-0.24-0.86-0.36-1.38-0.36c-0.5,0-0.96,0.12-1.36,0.36c-0.4,0.24-0.72,0.57-0.94,0.99
			C74.11,20.95,74,21.43,74,21.98c0,0.56,0.11,1.05,0.33,1.48c0.22,0.42,0.53,0.76,0.93,0.99S76.12,24.8,76.64,24.8z"/>
		<path class="st1" d="M89.03,27.42c-1.09,0-2.06-0.23-2.91-0.7c-0.85-0.47-1.52-1.11-2.02-1.93s-0.74-1.75-0.74-2.81
			c0-1.04,0.24-1.96,0.72-2.77s1.14-1.46,1.97-1.94c0.83-0.48,1.76-0.72,2.78-0.72c1.01,0,1.9,0.23,2.67,0.68s1.37,1.07,1.81,1.86
			c0.44,0.78,0.66,1.67,0.66,2.67c0,0.19-0.01,0.38-0.03,0.57c-0.02,0.19-0.06,0.41-0.12,0.66l-8.76,0.02v-2.12l7.45-0.02
			l-1.14,0.88c-0.03-0.62-0.14-1.14-0.33-1.55s-0.47-0.74-0.84-0.96s-0.82-0.33-1.35-0.33c-0.56,0-1.05,0.13-1.47,0.38
			c-0.42,0.25-0.74,0.6-0.96,1.06c-0.22,0.45-0.33,0.99-0.33,1.61c0,0.63,0.12,1.18,0.36,1.65s0.58,0.83,1.03,1.08
			s0.96,0.38,1.55,0.38c0.53,0,1.01-0.09,1.45-0.27c0.43-0.18,0.81-0.45,1.12-0.81l1.66,1.66c-0.5,0.59-1.12,1.04-1.84,1.34
			C90.66,27.27,89.88,27.42,89.03,27.42z"/>
		<path class="st1" d="M94.57,19.26v-2.48h7.71v2.48H94.57z M97.01,27.2V12.44h2.83V27.2H97.01z"/>
	</g>
</g>
</svg>
